<svg xmlns="http://www.w3.org/2000/svg" width="10" height="8" xmlns:xlink="http://www.w3.org/1999/xlink">
    <defs>
        <path id="a" d="M0 0h2.5v2.5H0z"/>
    </defs>
    <g fill="none" fill-rule="evenodd">
        <path fill="#BCB5B9" d="M9.152 4.905c.468-.293.472-.765 0-1.06L5.848 1.78C5.38 1.487 5 1.7 5 2.254v4.242c0 .554.376.77.848.474l3.304-2.065zM5 5V3.75H2.5V5z"/>
        <g transform="matrix(0 -1 -1 0 2.5 5)">
            <mask id="b" fill="#fff">
                <use xlink:href="#a"/>
            </mask>
            <path fill="#BCB5B9" d="M2.5 2.5C3.88 2.5 5 1.38 5 0S3.88-2.5 2.5-2.5 0-1.38 0 0s1.12 2.5 2.5 2.5zm0-1.25c.69 0 1.25-.56 1.25-1.25S3.19-1.25 2.5-1.25 1.25-.69 1.25 0s.56 1.25 1.25 1.25z" mask="url(#b)"/>
        </g>
        <path fill="#BCB5B9" d="M1.25 2.5V0H0v2.5z"/>
    </g>
</svg>